<?xml version="1.0" encoding="iso-8859-1"?>
<!-- Generator: Adobe Illustrator 16.0.0, SVG Export Plug-In . SVG Version: 6.00 Build 0)  -->
<!DOCTYPE svg PUBLIC "-//W3C//DTD SVG 1.1//EN" "http://www.w3.org/Graphics/SVG/1.1/DTD/svg11.dtd">
<svg version="1.1" id="Capa_1" xmlns="http://www.w3.org/2000/svg" xmlns:xlink="http://www.w3.org/1999/xlink" x="0px" y="0px"
	 width="222.522px" height="222.523px" viewBox="0 0 222.522 222.523" style="enable-background:new 0 0 222.522 222.523;"
	 xml:space="preserve">
<g>
	<path d="M187.771,97.921c-5.427-10.448,2.293-16.698,2.813-22.097c2.394-24.905-6.012-40.152-17.449-52.216
		C154.245,3.626,129.958-0.13,114.058,0.003C73.354,0.298,56.88,13.213,44.417,27.113C18.493,56.049,23.978,81.454,23.978,81.454
		c0.618,15.063,21.409,42.495,21.409,42.495c16.571,23.826,8.429,42.209,8.429,42.209c33.467,7.524,60.902,56.365,60.902,56.365
		c1.211-7.235,17.292-37.771,17.292-37.771c6.721-8.446,18.005-5.479,24.099-4.734c17.472,2.152,21.816-2.99,21.816-2.99
		c3.818-2.335,2.01-12.059,2.01-12.059c-1.4-5.029,0.881-7.488,2.306-9.457c3.83-5.35,1.613-7.832,1.613-7.832
		c-1.206-1.519-0.396-2.316-0.396-2.316c4.215-1.407,4.522-3.712,4.522-3.712l-0.106-7.737c-0.697-5.314,1.708-5.639,1.708-5.639
		c9.652-0.178,9.439-6.426,9.439-6.426C199.409,118.417,187.771,97.921,187.771,97.921z M62.02,94.442
		c-1.031-1.968-1.279-4.335-0.449-7.276c0.594-2.078,1.058-3.801,0.449-5.157c-0.617-1.386-1.938-1.895-3.96-1.082
		c-1.306,0.585-2.669,1.773-3.396,2.946l-3.281-3.712c1.061-1.475,3.083-3.345,5.896-4.604c5.234-2.35,8.917-0.52,10.391,2.772
		c1.351,3.015,0.37,5.834-0.387,8.184c-0.745,2.281-0.641,4.096,0.189,5.863l0.319,0.715l-5.269,2.367L62.02,94.442z
		 M69.074,103.417c-2.098,0.931-4.217,0.03-5.143-2.027c-0.939-2.113-0.145-4.268,1.913-5.187c2.143-0.958,4.206-0.08,5.181,2.007
		C71.956,100.27,71.211,102.455,69.074,103.417z M114.046,121.017c-6.851,1.655-12.735-2.252-14.352-8.987
		c-1.664-6.851,1.927-12.927,8.663-14.549c6.978-1.69,12.711,2.131,14.496,8.952C124.484,113.144,121.045,119.327,114.046,121.017z
		 M118.06,69.1c-3.505,6.457-4.22,11.978-2.68,17.771l0.567,2.335L98.734,93.37l-0.945-3.328
		c-1.986-6.508-1.404-13.763,2.719-22.165c2.946-5.92,5.313-10.87,4.247-15.265c-1.1-4.533-4.794-6.786-11.322-5.471
		c-4.273,1.035-9.073,3.842-11.878,6.978l-7.799-13.03c3.992-3.851,11.136-8.311,20.312-10.533
		c17.073-4.141,27.125,3.419,29.731,14.168C126.175,54.536,121.665,62.471,118.06,69.1z M150.545,76.181
		c-0.774,3.449-3.753,5.521-7.353,4.708c-3.529-0.786-5.344-3.91-4.575-7.383c0.792-3.529,3.818-5.509,7.282-4.734
		C149.493,69.584,151.267,72.634,150.545,76.181z M164.95,47.999c-1.135,5.065-5.001,7.693-8.163,9.927
		c-3.073,2.179-4.663,4.558-5.255,7.566l-0.271,1.199l-8.86-1.974l0.325-1.75c0.567-3.431,2.465-6.652,6.26-9.581
		c2.695-2.051,4.911-3.795,5.42-6.059c0.52-2.338-0.662-4.2-3.967-5.089c-2.198-0.491-5.035-0.281-7.039,0.532l-0.639-7.767
		c2.701-0.866,7.004-1.3,11.732-0.248C163.266,36.718,166.186,42.472,164.95,47.999z"/>
</g>
<g>
</g>
<g>
</g>
<g>
</g>
<g>
</g>
<g>
</g>
<g>
</g>
<g>
</g>
<g>
</g>
<g>
</g>
<g>
</g>
<g>
</g>
<g>
</g>
<g>
</g>
<g>
</g>
<g>
</g>
</svg>
